<?xml version="1.0" encoding="UTF-8"?>
<svg width="1079px" height="815px" viewBox="0 0 1079 815" version="1.1" xmlns="http://www.w3.org/2000/svg" xmlns:xlink="http://www.w3.org/1999/xlink">
    <!-- Generator: Sketch 52.5 (67469) - http://www.bohemiancoding.com/sketch -->
    <title>Desktop</title>
    <desc>Created with Sketch.</desc>
    <g id="Desktop" stroke="none" stroke-width="1" fill="none" fill-rule="evenodd">
        <g id="Browser">
            <g id="Topbar">
                <path d="M0,3 C0,20.3333333 0,37.6666667 0,55 C0,55 1079,55 1079,55 C1079,37.6666667 1079,20.3333333 1079,3 L1079,3 C1079,1.34314575 1077.65685,-3.04359188e-16 1076,0 L3,0 C1.34314575,3.04359188e-16 -6.46995335e-16,1.34314575 -4.4408921e-16,3 Z" id="bg" fill="#E5E5E5"></path>
                <rect id="search" fill="#FFFFFF" opacity="0.85" x="97" y="14" width="963.146462" height="27"></rect>
                <circle id="Circle" fill="#E96E4C" cx="25.5" cy="27.5" r="7.5"></circle>
                <path d="M48.5,35 C52.6421356,35 56,31.6421356 56,27.5 C56,23.3578644 52.6421356,20 48.5,20 C44.3578644,20 41,23.3578644 41,27.5 C41,31.6421356 44.3578644,35 48.5,35 Z" id="Circle" fill="#E6A935"></path>
                <circle id="Circle" fill="#85C33D" cx="71.5" cy="27.5" r="7.5"></circle>
            </g>
            <rect id="Rectangle" stroke="#E5E5E5" fill="#F1F1F1" x="0.5" y="54.5" width="1078" height="753"></rect>
        </g>
        <rect id="Rectangle" fill="#FFFFFF" fill-rule="nonzero" x="340" y="194" width="400" height="428"></rect>
        <g id="Button" transform="translate(440.000000, 476.000000)">
            <rect id="Rectangle" stroke="#C2C2C2" fill="#F2F2F2" x="0.5" y="0.5" width="199" height="44" rx="2"></rect>
            <text id="Login" font-family="Lato-Black, Lato" font-size="16" font-weight="700" fill="#C2C2C2">
                <tspan x="80.264" y="28">Login</tspan>
            </text>
        </g>
        <g id="Group-2" transform="translate(439.000000, 302.000000)">
            <g id="Group" transform="translate(0.000000, 121.000000)">
                <text id="Remember-me" font-family="Lato-Regular, Lato" font-size="16" font-weight="normal" fill="#C2C2C2">
                    <tspan x="31" y="17">Remember me</tspan>
                </text>
                <g id="Checkbox-checked">
                    <rect id="Rectangle" stroke="#C2C2C2" x="0.5" y="0.5" width="19" height="19" rx="2"></rect>
                    <polygon id="Shape" fill="#C2C2C2" fill-rule="nonzero" points="5.4972968 10.0981009 5 10.6050676 8.20735554 13.851446 8.58528893 13.851446 15 7.39771209 14.4148622 6.85574619 9.30227747 12.1094545 8.35476903 12.9499681"></polygon>
                </g>
            </g>
            <g id="Input">
                <rect id="Rectangle" stroke="#C2C2C2" x="0.5" y="0.5" width="200" height="44" rx="2"></rect>
                <text id="jon@appleseed.com" font-family="Lato-Regular, Lato" font-size="16" font-weight="normal" fill="#C2C2C2">
                    <tspan x="15" y="28">jon@appleseed.com</tspan>
                </text>
            </g>
            <g id="Input" transform="translate(0.000000, 61.000000)">
                <rect id="Rectangle" stroke="#C2C2C2" x="0.5" y="0.5" width="200" height="44" rx="2"></rect>
                <text id="**************" font-family="Lato-Regular, Lato" font-size="16" font-weight="normal" fill="#C2C2C2">
                    <tspan x="15" y="31">**************</tspan>
                </text>
            </g>
        </g>
        <g id="Button" transform="translate(440.000000, 529.000000)">
            <rect id="Rectangle" stroke="#C2C2C2" x="0.5" y="0.5" width="199" height="44" rx="2"></rect>
            <text id="Register" font-family="Lato-Black, Lato" font-size="16" font-weight="700" fill="#C2C2C2">
                <tspan x="69.488" y="28">Register</tspan>
            </text>
        </g>
        <text id="Login-here!" font-family="Lato-Black, Lato" font-size="16" font-weight="700" fill="#C2C2C2">
            <tspan x="499.064" y="255">Login here!</tspan>
        </text>
        <g id="Header-1" transform="translate(30.000000, 84.000000)">
            <g id="Logo">
                <rect id="Rectangle-3" fill="#E5E5E5" x="0" y="0" width="115.58111" height="60.15625" rx="3"></rect>
                <text id="LOGO" font-family="Lato-Black, Lato" font-size="16" font-weight="700" fill="#FFFFFF">
                    <tspan x="35.4625548" y="37">LOGO</tspan>
                </text>
            </g>
        </g>
    </g>
</svg>